HIERARCHY
ROOT Hips
{
	OFFSET 153.460495 90.984810 357.406311
	CHANNELS 6 Xposition Yposition Zposition Zrotation Yrotation Xrotation 
	JOINT LeftUpLeg
	{
		OFFSET 0.103456 1.857840 10.548501
		CHANNELS 3 Zrotation Yrotation Xrotation
		JOINT LeftLeg
		{
			OFFSET 43.499992 -0.000038 -0.000006
			CHANNELS 3 Zrotation Yrotation Xrotation
			JOINT LeftFoot
			{
				OFFSET 42.372196 0.000031 0.000002
				CHANNELS 3 Zrotation Yrotation Xrotation
				JOINT LeftToe
				{
					OFFSET 17.299974 -0.000010 -0.000017
					CHANNELS 3 Zrotation Yrotation Xrotation
					End Site
					{
						OFFSET 0.000000 0.000000 0.000000
					}
				}
			}
		}
	}
	JOINT RightUpLeg
	{
		OFFSET 0.103462 1.857831 -10.548510
		CHANNELS 3 Zrotation Yrotation Xrotation
		JOINT RightLeg
		{
			OFFSET 43.500046 -0.000015 0.000008
			CHANNELS 3 Zrotation Yrotation Xrotation
			JOINT RightFoot
			{
				OFFSET 42.372265 -0.000015 0.000004
				CHANNELS 3 Zrotation Yrotation Xrotation
				JOINT RightToe
				{
					OFFSET 17.299995 -0.000004 0.000013
					CHANNELS 3 Zrotation Yrotation Xrotation
					End Site
					{
						OFFSET 0.000000 0.000000 0.000000
					}
				}
			}
		}
	}
	JOINT Spine
	{
		OFFSET 6.901966 -2.603716 -0.000002
		CHANNELS 3 Zrotation Yrotation Xrotation
		JOINT Spine1
		{
			OFFSET 12.588102 -0.000001 0.000005
			CHANNELS 3 Zrotation Yrotation Xrotation
			JOINT Spine2
			{
				OFFSET 12.343201 -0.000023 -0.000011
				CHANNELS 3 Zrotation Yrotation Xrotation
				JOINT Neck
				{
					OFFSET 25.832901 0.000011 0.000007
					CHANNELS 3 Zrotation Yrotation Xrotation
					JOINT Head
					{
						OFFSET 11.766600 -0.000002 0.000002
						CHANNELS 3 Zrotation Yrotation Xrotation
						End Site
						{
							OFFSET 0.000000 0.000000 0.000000
						}
					}
				}
				JOINT LeftShoulder
				{
					OFFSET 19.745907 -1.480350 6.000119
					CHANNELS 3 Zrotation Yrotation Xrotation
					JOINT LeftArm
					{
						OFFSET 11.284122 -0.000013 -0.000023
						CHANNELS 3 Zrotation Yrotation Xrotation
						JOINT LeftForeArm
						{
							OFFSET 33.000057 0.000005 0.000025
							CHANNELS 3 Zrotation Yrotation Xrotation
							JOINT LeftHand
							{
								OFFSET 25.199997 0.000020 0.000019
								CHANNELS 3 Zrotation Yrotation Xrotation
								End Site
								{
									OFFSET 0.000000 0.000000 0.000000
								}
							}
						}
					}
				}
				JOINT RightShoulder
				{
					OFFSET 19.746096 -1.480352 -6.000062
					CHANNELS 3 Zrotation Yrotation Xrotation
					JOINT RightArm
					{
						OFFSET 11.284150 0.000007 -0.000012
						CHANNELS 3 Zrotation Yrotation Xrotation
						JOINT RightForeArm
						{
							OFFSET 33.000092 0.000019 0.000012
							CHANNELS 3 Zrotation Yrotation Xrotation
							JOINT RightHand
							{
								OFFSET 25.199797 0.000118 0.000427
								CHANNELS 3 Zrotation Yrotation Xrotation
								End Site
								{
									OFFSET 0.000000 0.000000 0.000000
								}
							}
						}
					}
				}
			}
		}
	}
}
MOTION
Frames: 8
Frame Time: 0.033333
153.460495 90.984810 357.406311 89.470663 -1.253619 85.422382 171.390128 -6.165892 168.472982 -22.399392 1.946249 -4.719548 83.462692 1.854876 -6.389722 21.454553 0.003094 0.000001 172.098596 3.468399 -171.793287 -19.197054 -3.579364 5.971076 85.019026 -2.409432 8.588031 21.454562 -0.003099 -0.000017 5.507100 -0.029570 0.183880 0.995768 -0.022153 0.387317 0.677691 -0.019678 0.387441 10.076144 3.004415 -3.514101 -22.980926 -1.180999 -2.796752 -76.642147 -84.705131 -105.606951 6.258931 20.145510 -24.135787 -56.803740 -23.053355 2.536568 4.517962 -15.388546 16.532201 -124.606993 85.089848 57.389148 3.967732 -12.418238 18.058715 -49.790764 17.866303 -1.956417 4.663960 16.693218 -10.005438 
153.466599 90.985382 357.398010 89.470663 -1.260424 85.414104 171.377724 -6.165894 168.472982 -22.399392 1.946248 -4.726534 83.462685 1.860126 -6.389727 21.454551 0.003105 0.000001 172.085496 3.468397 -171.800213 -19.197054 -3.574171 5.971081 85.009962 -2.409427 8.588035 21.454562 -0.003114 -0.000018 5.507106 -0.029577 0.183873 1.001306 -0.025856 0.382873 0.683229 -0.023407 0.383021 10.028246 3.023618 -3.514099 -22.936166 -1.205976 -2.790124 -76.617442 -84.697809 -105.632496 6.256958 20.165242 -24.135788 -56.803746 -23.064401 2.536570 4.507019 -15.357090 16.566013 -124.650952 85.102272 57.344247 3.985233 -12.447300 18.089937 -49.797953 17.856059 -1.956425 4.675224 16.693223 -10.000845 
153.477097 90.986397 357.384094 89.470663 -1.272448 85.400840 171.356223 -6.165891 168.472982 -22.399389 1.946241 -4.737890 83.462692 1.868707 -6.385038 21.454550 0.003089 -0.000001 172.063189 3.473405 -171.814228 -19.197056 -3.564221 5.971083 84.994423 -2.409425 8.588031 21.454558 -0.003110 -0.000016 5.511886 -0.029577 0.183872 1.010884 -0.032112 0.375292 0.692792 -0.029701 0.375480 9.956964 3.057588 -3.514105 -22.880999 -1.238559 -2.769512 -76.600196 -84.680911 -105.651552 6.245334 20.198232 -24.140930 -56.807821 -23.083990 2.536571 4.499001 -15.320543 16.629649 -124.699255 85.123835 57.294383 4.012844 -12.503730 18.146807 -49.810042 17.841298 -1.956422 4.694985 16.683232 -10.016380 
153.488098 90.987450 357.370209 89.470649 -1.285020 85.387200 171.334011 -6.165898 168.472982 -22.399392 1.946242 -4.749085 83.462706 1.877227 -6.380216 21.454550 0.003080 -0.000001 172.040294 3.478696 -171.830074 -19.197056 -3.553331 5.971080 84.978502 -2.409428 8.588028 21.454558 -0.003117 -0.000020 5.516869 -0.029562 0.183878 1.020824 -0.038633 0.368018 0.702735 -0.036284 0.368248 9.901377 3.087057 -3.514102 -22.843421 -1.263203 -2.755357 -76.601794 -84.660830 -105.651880 6.225927 20.229033 -24.147949 -56.823629 -23.094642 2.536573 4.527526 -15.332619 16.658867 -124.713831 85.143157 57.278475 4.038955 -12.564720 18.202027 -49.817532 17.834167 -1.956420 4.693903 16.642560 -10.055143 
153.499298 90.988419 357.356415 89.470649 -1.297591 85.372358 171.311977 -6.165903 168.472982 -22.403943 1.946244 -4.760116 83.462699 1.885594 -6.375572 21.454557 0.003108 0.000001 172.017180 3.483992 -171.845811 -19.197065 -3.542837 5.971086 84.962745 -2.409427 8.585538 21.454560 -0.003110 -0.000018 5.521918 -0.029564 0.183754 1.030889 -0.045539 0.361735 0.712810 -0.043207 0.361998 9.860703 3.109730 -3.514104 -22.817589 -1.277762 -2.749549 -76.613105 -84.640647 -105.642713 6.204076 20.257202 -24.155362 -56.844075 -23.099597 2.536563 4.570833 -15.363052 16.659612 -124.690103 85.156449 57.301524 4.061594 -12.621987 18.241388 -49.825516 17.836045 -1.956431 4.705879 16.601762 -10.075489 
153.510498 90.989220 357.342896 89.470014 -1.309541 85.355440 171.290995 -6.165891 168.472982 -22.409067 1.946246 -4.771419 83.462692 1.894122 -6.371326 21.454553 0.003091 -0.000002 171.994327 3.488997 -171.859745 -19.197066 -3.533946 5.971078 84.947636 -2.409425 8.582911 21.454557 -0.003101 -0.000017 5.526884 -0.029566 0.183627 1.040860 -0.052864 0.359018 0.722774 -0.050562 0.359090 9.836196 3.124259 -3.514106 -22.801273 -1.278896 -2.750502 -76.624040 -84.623455 -105.633267 6.185359 20.282501 -24.161287 -56.861820 -23.102529 2.536571 4.603980 -15.375405 16.634926 -124.623946 85.159885 57.367742 4.077774 -12.668721 18.255484 -49.829898 17.850766 -1.956421 4.721389 16.549741 -10.088206 
153.521301 90.989761 357.330109 89.469037 -1.320229 85.335543 171.272061 -6.165891 168.472982 -22.414895 1.946242 -4.783035 83.462699 1.902733 -6.369416 21.454551 0.003086 -0.000001 171.972197 3.493501 -171.869963 -19.197063 -3.527868 5.965739 84.933730 -2.405396 8.580218 21.454558 -0.003111 -0.000019 5.531709 -0.029578 0.183499 1.050492 -0.060683 0.357331 0.732392 -0.058401 0.357617 9.831048 3.128302 -3.514105 -22.793280 -1.263043 -2.759261 -76.624047 -84.612677 -105.634306 6.175290 20.304754 -24.164357 -56.869617 -23.107577 2.536575 4.616657 -15.359468 16.615017 -124.514431 85.149940 57.478542 4.082504 -12.699431 18.245773 -49.822610 17.872679 -1.956423 4.732669 16.499659 -10.089110 
153.531601 90.990013 357.318207 89.467869 -1.329032 85.311699 171.256448 -6.162902 168.466848 -22.420907 1.946247 -4.794829 83.462692 1.911357 -6.368182 21.454550 0.003103 0.000001 171.951324 3.497101 -171.874798 -19.197061 -3.525879 5.955433 84.921286 -2.397922 8.577375 21.454558 -0.003098 -0.000016 5.536264 -0.033763 0.183354 1.059571 -0.069087 0.356396 0.741474 -0.066805 0.356334 9.846889 3.120864 -3.515502 -22.790968 -1.231112 -2.776103 -76.606446 -84.611147 -105.652112 6.178453 20.322354 -24.161654 -56.865457 -23.109604 2.536558 4.621450 -15.329899 16.631623 -124.389493 85.129060 57.605419 4.081656 -12.711088 18.212015 -49.802065 17.895791 -1.956426 4.728122 16.474867 -10.081898 
